# xmcd
#
# Track frame offsets: 
#        150
#        22991
#        45329
#        61595
#        87320
#        110718
#        124531
#        153447
#        181612
#        203180
#        226465
#        250261
#        270012
#
# Disc length: 3937 seconds
#
# Revision: 0
# Processed by: cddbd v1.5.2PL0 Copyright (c) Steve Scherf et al.
# Submitted via: ExactAudioCopy v0.95b4
#
DISCID=960f5f0d
DTITLE=Lagunable' - uniti come palla e racchetta
DYEAR=2007
DGENRE=Blues
TTITLE0=Uniti come palla e racchetta
TTITLE1=Cicionando in internet
TTITLE2=Il mago
TTITLE3=S. Giuliano
TTITLE4=Il toro di Pianuga
TTITLE5=Bark'n'Rolla
TTITLE6=Bluesasso
TTITLE7=Sito porno
TTITLE8=No xe' rose'
TTITLE9=Swingorgo
TTITLE10=Il fiore rotto di Sabrina
TTITLE11=Tu sei orrendo
TTITLE12=Le parole del vento
EXTD=
EXTT0=
EXTT1=
EXTT2=
EXTT3=
EXTT4=
EXTT5=
EXTT6=
EXTT7=
EXTT8=
EXTT9=
EXTT10=
EXTT11=
EXTT12=
PLAYORDER=
